<svg width="20" height="20" viewBox="0 0 20 20" fill="none" xmlns="http://www.w3.org/2000/svg">
<rect width="20" height="20" rx="10" fill="#E0E0E0"/>
<path d="M13 11.5V13H11.5V14H13V15.5H14V14H15.5V13H14V11.5H13ZM10.65 14.5H6.5C5.95 14.5 5.5 14.05 5.5 13.5V6.5C5.5 5.95 5.95 5.5 6.5 5.5H13.5C14.05 5.5 14.5 5.95 14.5 6.5V10.65C14.2 10.55 13.85 10.5 13.5 10.5C12.95 10.5 12.4 10.65 11.95 10.95L11.25 10L9.5 12.25L8.25 10.75L6.5 13H10.55C10.5 13.15 10.5 13.35 10.5 13.5C10.5 13.85 10.55 14.2 10.65 14.5Z" fill="black"/>
</svg>
