<svg width="30" height="30" viewBox="0 0 30 30" fill="none" xmlns="http://www.w3.org/2000/svg">
<path fill-rule="evenodd" clip-rule="evenodd" d="M15 2C14.6496 1.99995 14.3033 2.07274 13.9846 2.21342C13.6659 2.3541 13.3822 2.55939 13.1526 2.81538C12.9231 3.07137 12.7532 3.37207 12.6544 3.69711C12.5556 4.02214 12.5302 4.36392 12.58 4.69927C10.8085 5.205 9.2538 6.25126 8.14797 7.68179C7.04213 9.11232 6.44454 10.8504 6.44444 12.6364V22.0909H5.22222C4.89807 22.0909 4.58719 22.2154 4.35798 22.4371C4.12877 22.6587 4 22.9593 4 23.2727C4 23.5862 4.12877 23.8868 4.35798 24.1084C4.58719 24.33 4.89807 24.4545 5.22222 24.4545H24.7778C25.1019 24.4545 25.4128 24.33 25.642 24.1084C25.8712 23.8868 26 23.5862 26 23.2727C26 22.9593 25.8712 22.6587 25.642 22.4371C25.4128 22.2154 25.1019 22.0909 24.7778 22.0909H23.5556V12.6364C23.5555 10.8504 22.9579 9.11232 21.852 7.68179C20.7462 6.25126 19.1915 5.205 17.42 4.69927C17.4698 4.36392 17.4444 4.02214 17.3456 3.69711C17.2468 3.37207 17.0769 3.07137 16.8474 2.81538C16.6178 2.55939 16.3341 2.3541 16.0154 2.21342C15.6967 2.07274 15.3504 1.99995 15 2ZM17.4444 26.8182C17.4444 27.1316 17.3157 27.4322 17.0865 27.6539C16.8573 27.8755 16.5464 28 16.2222 28H13.7778C13.4536 28 13.1427 27.8755 12.9135 27.6539C12.6843 27.4322 12.5556 27.1316 12.5556 26.8182C12.5556 26.5047 12.6843 26.2041 12.9135 25.9825C13.1427 25.7609 13.4536 25.6364 13.7778 25.6364H16.2222C16.5464 25.6364 16.8573 25.7609 17.0865 25.9825C17.3157 26.2041 17.4444 26.5047 17.4444 26.8182Z" fill="#BA2664"/>
</svg>
