<svg width="20" height="20" viewBox="0 0 20 20" fill="none" xmlns="http://www.w3.org/2000/svg">
<g id="Frame 31">
<path id="Vector" d="M17.1 3H7.5C7.26131 3 7.03239 3.09482 6.8636 3.2636C6.69482 3.43239 6.6 3.66131 6.6 3.9V6.6H3.9C3.66131 6.6 3.43239 6.69482 3.2636 6.8636C3.09482 7.03239 3 7.26131 3 7.5V17.1C3 17.3387 3.09482 17.5676 3.2636 17.7364C3.43239 17.9052 3.66131 18 3.9 18H13.5C13.7387 18 13.9676 17.9052 14.1364 17.7364C14.3052 17.5676 14.4 17.3387 14.4 17.1V14.4H17.1C17.3387 14.4 17.5676 14.3052 17.7364 14.1364C17.9052 13.9676 18 13.7387 18 13.5V3.9C18 3.66131 17.9052 3.43239 17.7364 3.2636C17.5676 3.09482 17.3387 3 17.1 3ZM12.6 16.2H4.8V8.4H12.6V16.2ZM16.2 12.6H14.4V7.5C14.4 7.26131 14.3052 7.03239 14.1364 6.8636C13.9676 6.69482 13.7387 6.6 13.5 6.6H8.4V4.8H16.2V12.6Z" fill="#52C7FA"/>
</g>
</svg>
