<svg width="24" height="23" viewBox="0 0 24 23" fill="none" xmlns="http://www.w3.org/2000/svg">
<g id="mingcute:delete-line" clip-path="url(#clip0_701_1244)">
<g id="Group">
<path id="Vector" d="M20 4.79199C20.2652 4.79199 20.5196 4.89296 20.7071 5.07268C20.8946 5.2524 21 5.49616 21 5.75033C21 6.00449 20.8946 6.24825 20.7071 6.42797C20.5196 6.60769 20.2652 6.70866 20 6.70866H19L18.997 6.7767L18.064 19.3031C18.0281 19.7866 17.8023 20.2392 17.4321 20.5696C17.0619 20.9 16.5749 21.0837 16.069 21.0837H7.93C7.42414 21.0837 6.93707 20.9 6.56688 20.5696C6.1967 20.2392 5.97092 19.7866 5.935 19.3031L5.002 6.77766C5.00048 6.75469 4.99982 6.73167 5 6.70866H4C3.73478 6.70866 3.48043 6.60769 3.29289 6.42797C3.10536 6.24825 3 6.00449 3 5.75033C3 5.49616 3.10536 5.2524 3.29289 5.07268C3.48043 4.89296 3.73478 4.79199 4 4.79199H20ZM16.997 6.70866H7.003L7.931 19.167H16.069L16.997 6.70866ZM14 1.91699C14.2652 1.91699 14.5196 2.01796 14.7071 2.19768C14.8946 2.3774 15 2.62116 15 2.87533C15 3.12949 14.8946 3.37325 14.7071 3.55297C14.5196 3.73269 14.2652 3.83366 14 3.83366H10C9.73478 3.83366 9.48043 3.73269 9.29289 3.55297C9.10536 3.37325 9 3.12949 9 2.87533C9 2.62116 9.10536 2.3774 9.29289 2.19768C9.48043 2.01796 9.73478 1.91699 10 1.91699H14Z" fill="#B82C67"/>
</g>
</g>
<defs>
<clipPath id="clip0_701_1244">
<rect width="24" height="23" fill="white"/>
</clipPath>
</defs>
</svg>
