<svg width="23" height="23" viewBox="0 0 23 23" fill="none" xmlns="http://www.w3.org/2000/svg">
<path d="M5.16663 6.16667H3.99996C3.38112 6.16667 2.78763 6.4125 2.35004 6.85008C1.91246 7.28767 1.66663 7.88116 1.66663 8.5V19C1.66663 19.6188 1.91246 20.2123 2.35004 20.6499C2.78763 21.0875 3.38112 21.3333 3.99996 21.3333H14.5C15.1188 21.3333 15.7123 21.0875 16.1499 20.6499C16.5875 20.2123 16.8333 19.6188 16.8333 19V17.8333" stroke="#B82C67" stroke-width="2.5" stroke-linecap="round" stroke-linejoin="round"/>
<path d="M15.6667 3.83333L19.1667 7.33333M20.7825 5.6825C21.242 5.22301 21.5001 4.59981 21.5001 3.95C21.5001 3.30019 21.242 2.67699 20.7825 2.2175C20.323 1.75801 19.6998 1.49988 19.05 1.49988C18.4002 1.49988 17.777 1.75801 17.3175 2.2175L7.5 12V15.5H11L20.7825 5.6825Z" stroke="#B82C67" stroke-width="2.5" stroke-linecap="round" stroke-linejoin="round"/>
</svg>
