<svg width="20" height="20" viewBox="0 0 20 20" fill="none" xmlns="http://www.w3.org/2000/svg">
<path d="M19.4999 7.16441H12.8338V0.500138C12.8338 0.367563 12.7811 0.240435 12.6874 0.146665C12.5936 0.0528948 12.4665 0.000146148 12.334 0H7.66493C7.53233 7.31368e-05 7.40519 0.0527985 7.31146 0.146585C7.21772 0.240371 7.16506 0.367541 7.16506 0.500138L7.16479 7.16497L0.500145 7.16469C0.235038 7.16469 0.000276172 7.39945 3.05612e-07 7.66483V12.3338C-7.23675e-05 12.3995 0.0128166 12.4645 0.0379289 12.5252C0.0630412 12.5859 0.099883 12.6411 0.146344 12.6875C0.192805 12.7339 0.247971 12.7708 0.308683 12.7958C0.369394 12.8209 0.434458 12.8338 0.500145 12.8337H7.16506V19.4999C7.16514 19.6325 7.21785 19.7597 7.31163 19.8534C7.40541 19.9472 7.53259 19.9999 7.66521 20H12.3337C12.3994 20 12.4644 19.9871 12.5251 19.9619C12.5858 19.9368 12.6409 19.9 12.6873 19.8535C12.7338 19.8071 12.7706 19.7519 12.7958 19.6913C12.8209 19.6306 12.8338 19.5655 12.8338 19.4999V12.8339L19.4996 12.8337C19.5653 12.8338 19.6304 12.8209 19.6911 12.7958C19.7518 12.7707 19.807 12.7339 19.8535 12.6874C19.8999 12.6409 19.9368 12.5858 19.9619 12.525C19.987 12.4643 19.9998 12.3992 19.9997 12.3335L20 7.66455C20 7.53191 19.9473 7.40469 19.8535 7.3109C19.7597 7.21711 19.6325 7.16441 19.4999 7.16441Z" fill="white"/>
</svg>
