<svg width="20" height="20" viewBox="0 0 20 20" fill="none" xmlns="http://www.w3.org/2000/svg">
<g id="Frame 30">
<path id="Vector" d="M16 15.9988V12.2496H12.25M4 4.00116V7.75044H7.75M15.9535 9.25015C15.7965 8.00344 15.252 6.83748 14.3967 5.91677C13.5414 4.99605 12.4186 4.36706 11.1866 4.11853C9.95467 3.87 8.67576 4.01447 7.53032 4.53157C6.38488 5.04866 5.43073 5.91228 4.8025 7.00058M4.0465 10.7499C4.20349 11.9966 4.74804 13.1625 5.60331 14.0832C6.45858 15.0039 7.5814 15.6329 8.81336 15.8815C10.0453 16.13 11.3242 15.9855 12.4697 15.4684C13.6151 14.9513 14.5693 14.0877 15.1975 12.9994" stroke="#B82C67" stroke-width="2" stroke-linecap="round" stroke-linejoin="round"/>
</g>
</svg>
