<svg width="24" height="24" viewBox="0 0 24 24" fill="none" xmlns="http://www.w3.org/2000/svg">
<g id="material-symbols:arrow-drop-down-rounded">
<path id="Vector" d="M11.3003 16.3L8.70026 13.7C8.38359 13.3833 8.31292 13.021 8.48826 12.613C8.66359 12.205 8.97592 12.0007 9.42526 12H14.5753C15.0253 12 15.3379 12.2043 15.5133 12.613C15.6886 13.0217 15.6176 13.384 15.3003 13.7L12.7003 16.3C12.6003 16.4 12.4919 16.475 12.3753 16.525C12.2586 16.575 12.1336 16.6 12.0003 16.6C11.8669 16.6 11.7419 16.575 11.6253 16.525C11.5086 16.475 11.4003 16.4 11.3003 16.3Z" fill="#B82C67"/>
<path id="Vector_2" d="M12.7007 6.29961L15.3007 8.89961C15.6174 9.21628 15.6881 9.57861 15.5127 9.98661C15.3374 10.3946 15.0251 10.5989 14.5757 10.5996H9.42572C8.97572 10.5996 8.66305 10.3953 8.48772 9.98661C8.31239 9.57794 8.38339 9.21561 8.70072 8.89961L11.3007 6.29961C11.4007 6.19961 11.5091 6.12461 11.6257 6.07461C11.7424 6.02461 11.8674 5.99961 12.0007 5.99961C12.1341 5.99961 12.2591 6.02461 12.3757 6.07461C12.4924 6.12461 12.6007 6.19961 12.7007 6.29961Z" fill="#B82C67"/>
</g>
</svg>
