<svg width="26" height="19" viewBox="0 0 26 19" fill="none" xmlns="http://www.w3.org/2000/svg">
<path d="M8.04316 15.4002L2.62161 10.1119C2.47984 9.97191 2.311 9.86078 2.12487 9.78493C1.93874 9.70908 1.73902 9.67003 1.5373 9.67003C1.33558 9.67003 1.13587 9.70908 0.949737 9.78493C0.763607 9.86078 0.594763 9.97191 0.452993 10.1119C0.309492 10.2502 0.19556 10.4149 0.1178 10.5964C0.0400405 10.778 0 10.9728 0 11.1695C0 11.3663 0.0400405 11.5611 0.1178 11.7427C0.19556 11.9242 0.309492 12.0889 0.452993 12.2272L6.94336 18.5581C7.54747 19.1473 8.52335 19.1473 9.12747 18.5581L25.547 2.55718C25.6905 2.41889 25.8044 2.2542 25.8822 2.07264C25.96 1.89109 26 1.69628 26 1.49952C26 1.30276 25.96 1.10795 25.8822 0.926394C25.8044 0.744839 25.6905 0.580145 25.547 0.441859C25.4052 0.301886 25.2364 0.190753 25.0503 0.114905C24.8641 0.039056 24.6644 0 24.4627 0C24.261 0 24.0613 0.039056 23.8751 0.114905C23.689 0.190753 23.5202 0.301886 23.3784 0.441859L8.04316 15.4002Z" fill="white"/>
</svg>
